<?xml version="1.0" standalone="no"?>
<!DOCTYPE svg PUBLIC "-//W3C//DTD SVG 20010904//EN"
 "http://www.w3.org/TR/2001/REC-SVG-20010904/DTD/svg10.dtd">
<svg version="1.0" xmlns="http://www.w3.org/2000/svg"
 width="100.000000pt" height="100.000000pt" viewBox="0 0 100.000000 100.000000"
 preserveAspectRatio="xMidYMid meet">

<g transform="translate(0.000000,100.000000) scale(0.100000,-0.100000)"
fill="#000000" stroke="none">
<path d="M166 785 c-56 -20 -107 -65 -136 -121 -21 -40 -26 -65 -28 -149 -4
-118 6 -165 51 -231 88 -132 296 -134 394 -5 60 78 32 85 -45 11 -82 -79 -182
-91 -267 -32 -46 32 -95 118 -95 169 l0 33 231 0 232 0 -5 78 c-3 61 -11 89
-33 130 -59 109 -184 158 -299 117z m169 -44 c77 -34 125 -113 125 -203 l0
-38 -210 0 -210 0 0 45 c0 154 158 259 295 196z"/>
<path d="M516 768 c5 -7 53 -71 108 -142 91 -118 98 -131 86 -150 -7 -12 -58
-78 -112 -148 -89 -117 -99 -139 -53 -122 9 4 57 60 106 125 50 66 95 119 99
119 4 0 49 -53 99 -119 49 -65 97 -121 106 -125 46 -17 36 5 -53 122 -54 70
-105 136 -112 148 -12 19 -4 33 94 160 80 104 103 140 91 142 -23 5 -52 -25
-142 -145 -43 -56 -80 -103 -83 -103 -3 0 -34 40 -70 87 -91 122 -129 163
-152 163 -13 0 -17 -4 -12 -12z"/>
</g>
</svg>
